<svg xmlns="http://www.w3.org/2000/svg" xmlns:xlink="http://www.w3.org/1999/xlink" aria-hidden="true" role="img" class="iconify iconify--logos" width="31.88" height="32" preserveAspectRatio="xMidYMid meet" viewBox="0 0 256 257"><defs><linearGradient id="IconifyId1813088fe1fbc01fb466" x1="-.828%" x2="57.636%" y1="7.652%" y2="78.411%"><stop offset="0%" stop-color="#41D1FF"></stop><stop offset="100%" stop-color="#BD34FE"></stop></linearGradient><linearGradient id="IconifyId1813088fe1fbc01fb467" x1="43.376%" x2="50.316%" y1="2.242%" y2="89.03%"><stop offset="0%" stop-color="#FFEA83"></stop><stop offset="8.333%" stop-color="#FFDD35"></stop><stop offset="100%" stop-color="#FFA800"></stop></linearGradient></defs><path fill="url(#IconifyId1813088fe1fbc01fb466)" d="M255.153 37.938L134.897 252.976c-2.474 4.44-7.241 7.21-12.457 7.21c-5.215 0-9.981-2.77-12.456-7.21L.903 37.938c-2.476-4.441-2.476-9.652 0-14.093L24.016 6.281c2.475-4.441 7.241-7.211 12.457-7.211c5.214 0 9.98 2.77 12.456 7.211l142.224 320.107c2.475 4.441 2.475 9.652 0 14.093z"></path><path fill="url(#IconifyId1813088fe1fbc01fb467)" d="M185.432.063L96.44 17.557l63.168 110.28l73.737-127.994L185.432.063z"></path><path fill="#fff" d="M96.44 17.557L0 160.627l23.53 39.876l73.913-129.946z"></path></svg>
